<?xml version="1.0" standalone="no"?>
<!DOCTYPE svg PUBLIC "-//W3C//DTD SVG 20010904//EN"
 "http://www.w3.org/TR/2001/REC-SVG-20010904/DTD/svg10.dtd">
<svg version="1.0" xmlns="http://www.w3.org/2000/svg"
 width="1216.000000pt" height="1216.000000pt" viewBox="0 0 1216.000000 1216.000000"
 preserveAspectRatio="xMidYMid meet">
<metadata>
Created by potrace 1.14, written by Peter Selinger 2001-2017
</metadata>
<g transform="translate(0.000000,1216.000000) scale(0.100000,-0.100000)"
fill="#000000" stroke="none">
<path d="M1750 9912 c0 -5 -28 -45 -62 -90 -35 -44 -214 -282 -398 -529 -184
-246 -339 -453 -345 -459 -5 -6 -17 -21 -25 -33 -27 -39 -180 -246 -193 -261
-20 -22 -179 -276 -217 -345 -70 -127 -130 -248 -130 -260 0 -7 -6 -18 -14
-24 -8 -7 -17 -22 -20 -34 -3 -13 -14 -43 -25 -68 -11 -24 -20 -48 -21 -54 -1
-5 -8 -21 -15 -35 -8 -14 -25 -56 -38 -95 -34 -96 -78 -227 -82 -245 -2 -8
-17 -63 -34 -122 -16 -60 -28 -108 -25 -108 2 0 0 -10 -5 -23 -5 -13 -12 -41
-16 -63 -8 -46 -13 -69 -15 -69 -2 0 -2 -3 -15 -95 -4 -30 -9 -58 -11 -61 -2
-4 -6 -35 -10 -70 -3 -35 -7 -75 -10 -89 -26 -163 -26 -678 1 -885 3 -16 7
-51 9 -76 3 -25 8 -61 11 -80 4 -19 8 -43 10 -54 2 -18 28 -155 39 -210 3 -17
51 -198 60 -230 1 -5 8 -30 15 -55 7 -25 15 -52 18 -60 3 -8 7 -19 8 -25 12
-47 106 -294 147 -385 39 -86 118 -245 151 -305 19 -33 47 -82 62 -110 15 -27
34 -57 41 -66 8 -8 14 -21 14 -27 0 -7 5 -12 10 -12 6 0 10 -6 10 -14 0 -8 6
-21 13 -28 7 -7 22 -26 32 -43 32 -50 185 -256 234 -315 95 -113 96 -114 207
-232 58 -61 199 -194 268 -253 32 -27 63 -55 70 -60 6 -6 40 -33 76 -60 36
-28 67 -53 68 -57 2 -5 8 -8 13 -8 6 0 19 -8 29 -18 31 -29 292 -202 305 -202
5 0 16 -6 24 -14 31 -27 253 -142 415 -216 51 -23 274 -111 291 -115 5 -1 19
-5 30 -9 42 -16 50 -19 60 -22 6 -2 57 -17 115 -34 58 -17 115 -33 128 -36 12
-2 62 -14 110 -25 48 -12 98 -23 112 -25 35 -6 92 -16 110 -21 8 -2 29 -5 45
-7 62 -7 141 -17 165 -21 73 -13 212 -19 445 -19 213 1 400 7 400 14 0 0 22 3
50 5 46 4 70 8 165 21 145 22 536 113 600 141 8 3 19 5 24 4 4 -1 13 2 20 7 6
5 43 20 81 32 151 50 480 196 576 256 20 13 40 20 43 17 3 -4 6 -2 6 3 0 5 26
23 58 39 31 17 59 33 60 38 2 4 7 7 12 7 8 0 123 73 145 93 9 7 34 24 90 59
11 7 22 16 25 19 3 3 43 34 90 69 47 35 90 69 96 75 6 5 38 33 70 60 73 62
208 190 283 269 94 99 105 111 143 157 20 24 47 56 60 71 13 14 32 38 42 53
11 14 27 35 35 45 44 51 51 61 51 66 0 3 6 11 13 18 6 8 32 38 57 67 50 59
202 214 265 269 121 107 316 236 480 320 63 32 115 56 115 53 0 -3 10 1 23 9
19 13 172 72 187 73 3 0 10 4 16 7 6 4 56 18 110 32 55 13 113 27 129 32 17 4
37 8 45 10 33 6 106 18 120 19 8 1 44 5 80 9 36 5 90 10 121 11 31 1 61 5 66
8 6 4 13 4 16 1 3 -3 70 -7 149 -10 78 -2 152 -6 163 -8 11 -1 52 -6 90 -11
39 -4 74 -10 79 -13 5 -3 21 -7 35 -8 27 -3 66 -11 66 -14 0 -1 12 -3 27 -5
16 -2 38 -7 50 -11 28 -10 24 -9 71 -18 20 -5 37 -10 37 -13 0 -6 -21 -45 -32
-57 -15 -19 -131 -172 -213 -283 -44 -59 -85 -114 -92 -123 -34 -43 -499 -663
-508 -677 -5 -9 -16 -23 -24 -32 -8 -9 -173 -229 -367 -489 l-354 -472 45 -33
c82 -58 244 -145 320 -172 22 -7 70 -25 108 -38 37 -14 67 -24 67 -22 0 2 15
-1 33 -6 99 -31 214 -43 387 -44 157 0 263 10 332 31 10 3 30 8 45 10 80 14
225 67 306 110 15 8 27 12 27 9 0 -4 13 3 29 14 16 12 34 21 39 21 6 0 17 6
24 13 7 7 33 24 58 39 25 14 63 40 85 57 22 17 53 41 69 54 75 56 244 238 296
317 8 12 23 32 32 44 10 11 132 174 272 361 139 187 261 348 270 357 9 10 16
20 16 23 0 4 193 263 222 296 7 9 18 23 23 31 6 9 127 172 270 363 143 190
267 355 275 366 8 12 33 44 55 72 22 29 80 105 128 169 l87 118 -143 107 c-78
59 -143 110 -145 115 -2 4 -10 8 -17 8 -7 0 -15 3 -17 8 -1 4 -30 27 -63 51
-33 25 -61 48 -63 53 -2 4 -10 8 -17 8 -7 0 -15 3 -17 8 -5 11 -249 190 -353
258 -49 32 -92 62 -95 65 -3 3 -12 8 -20 12 -8 3 -36 19 -62 34 -110 66 -141
83 -153 83 -8 0 -15 4 -17 8 -4 11 -168 92 -185 92 -7 0 -13 5 -13 10 0 6 -8
10 -18 10 -10 0 -22 4 -28 9 -10 9 -225 95 -294 117 -25 8 -54 19 -65 23 -72
30 -393 113 -490 127 -16 3 -41 7 -55 11 -14 3 -34 7 -45 9 -11 1 -38 5 -60 8
-22 2 -56 7 -75 10 -94 15 -258 29 -342 30 -27 1 -48 5 -48 9 0 5 -5 5 -12 1
-13 -8 -78 -12 -78 -4 0 7 -59 5 -66 -2 -3 -4 -18 -2 -34 2 -16 4 -31 6 -33 3
-3 -2 -49 -6 -104 -9 -177 -7 -278 -17 -418 -40 -129 -22 -154 -26 -215 -39
-14 -3 -34 -7 -45 -9 -36 -7 -222 -56 -241 -63 -13 -5 -16 -3 -11 9 3 9 3 19
0 22 -9 9 -9 66 0 66 5 0 5 5 2 11 -4 6 -9 45 -11 87 -4 90 -13 217 -14 217
-1 0 -3 14 -5 30 -5 37 -17 133 -20 160 -3 20 -21 119 -30 165 -3 14 -8 39
-11 55 -3 17 -14 64 -24 106 -11 42 -21 85 -23 95 -2 10 -7 26 -10 34 -4 12
-17 59 -21 80 -3 12 -68 207 -76 225 -4 11 -13 36 -20 55 -7 19 -21 54 -31 77
-11 24 -19 45 -19 48 0 25 -216 456 -232 463 -5 2 -8 8 -8 14 0 5 -14 29 -30
53 -16 24 -30 46 -30 50 0 8 -154 232 -192 279 -197 247 -202 252 -357 411
-48 50 -116 115 -151 145 -34 30 -72 64 -84 75 -11 11 -39 34 -61 50 -22 17
-44 35 -50 41 -5 7 -129 101 -275 210 -146 108 -266 201 -268 206 -2 4 -10 8
-17 8 -7 0 -15 3 -17 8 -7 16 -162 126 -165 117 -2 -6 -213 -288 -468 -629
-256 -340 -465 -622 -465 -627 0 -4 -4 -9 -8 -11 -8 -3 -325 -421 -347 -457
-5 -9 -12 -18 -15 -21 -19 -18 -110 -141 -110 -149 0 -5 -4 -11 -8 -13 -8 -3
-208 -265 -227 -296 -5 -9 -18 -24 -27 -33 -10 -9 -15 -19 -11 -22 3 -4 -2 -9
-11 -13 -9 -3 -16 -12 -16 -20 0 -8 -4 -14 -10 -14 -5 0 -10 -7 -10 -15 0 -8
-5 -15 -12 -15 -6 0 -9 -3 -6 -6 5 -5 -25 -58 -50 -89 -4 -5 -10 -14 -12 -20
-8 -22 -52 -121 -61 -139 -6 -10 -12 -26 -14 -35 -3 -9 -14 -43 -25 -76 -20
-58 -51 -188 -65 -270 -4 -22 -8 -96 -11 -165 -2 -69 -4 -127 -5 -130 -1 -3 0
-9 1 -15 1 -5 4 -28 6 -50 14 -168 62 -357 130 -510 10 -22 17 -43 16 -47 -1
-5 1 -8 6 -8 4 0 13 -14 21 -31 18 -41 88 -161 98 -168 5 -3 20 -24 35 -46 48
-74 162 -197 248 -270 20 -16 45 -38 57 -48 21 -18 22 -17 102 88 45 58 81
110 81 115 0 6 4 10 8 10 4 0 32 34 62 76 30 42 60 82 65 88 6 6 100 132 210
279 248 333 319 427 339 450 9 9 16 19 16 22 0 2 47 66 104 142 152 200 195
258 426 566 l209 278 24 -38 c79 -127 187 -337 187 -364 0 -8 5 -20 11 -26 6
-6 12 -17 13 -24 2 -8 9 -27 16 -44 7 -16 14 -32 15 -35 0 -3 6 -21 13 -41 7
-20 15 -45 17 -55 3 -10 16 -62 30 -114 13 -52 27 -108 30 -125 2 -16 6 -39 9
-50 12 -63 24 -167 31 -272 2 -44 5 -85 6 -90 1 -4 1 -10 0 -13 -1 -3 -3 -63
-6 -135 -5 -135 -12 -228 -20 -255 -2 -8 -7 -33 -10 -55 -7 -51 -9 -64 -30
-145 -8 -36 -17 -72 -19 -80 -11 -47 -29 -106 -38 -129 -6 -14 -12 -30 -13
-36 -20 -80 -127 -305 -224 -467 -34 -58 -118 -176 -175 -248 -63 -78 -320
-340 -335 -340 -4 0 -22 -12 -39 -27 -44 -40 -48 -43 -149 -111 -119 -80 -156
-101 -291 -167 -97 -48 -279 -122 -315 -129 -7 -2 -43 -12 -82 -24 -38 -11
-81 -23 -95 -26 -14 -2 -45 -9 -70 -15 -66 -15 -111 -23 -145 -26 -16 -2 -48
-6 -70 -9 -22 -3 -84 -8 -138 -11 -53 -2 -102 -7 -107 -10 -6 -3 -10 -2 -10 4
0 6 -11 6 -30 1 -16 -5 -30 -6 -30 -2 0 4 -30 7 -68 8 -37 0 -103 4 -147 8
-44 5 -90 9 -102 9 -13 1 -23 3 -23 7 0 3 -12 6 -27 6 -38 2 -184 34 -205 45
-10 5 -24 9 -32 9 -24 0 -205 61 -212 71 -3 5 -9 7 -14 4 -5 -3 -11 -1 -15 5
-3 5 -12 10 -20 10 -26 0 -316 146 -323 163 -2 4 -8 7 -13 7 -12 0 -163 101
-167 112 -2 4 -9 8 -14 8 -6 0 -18 7 -27 15 -9 8 -45 38 -81 67 -139 111 -339
328 -442 482 -23 33 -45 63 -50 64 -4 2 -8 8 -8 13 0 5 -12 28 -26 50 -64 102
-206 408 -218 471 -1 7 -14 51 -29 98 -14 47 -33 121 -42 165 -9 44 -18 87
-20 95 -3 17 -12 82 -20 154 -3 26 -8 81 -10 122 -2 40 -7 79 -11 85 -4 7 -3
10 2 7 5 -4 9 44 10 110 0 106 11 269 19 282 2 3 6 25 9 50 7 54 10 66 31 150
8 36 17 72 19 80 12 48 29 106 38 129 6 14 12 28 13 31 6 24 32 95 52 140 90
203 141 290 345 587 90 131 213 410 223 503 1 14 5 34 8 45 7 23 17 76 23 120
3 27 16 225 16 250 0 24 -13 161 -17 187 -10 57 -15 84 -20 108 -3 14 -8 36
-11 50 -7 35 -41 147 -61 195 -19 48 -115 246 -125 260 -5 6 -36 50 -71 100
-90 130 -347 379 -347 337z"/>
</g>
</svg>
