<svg xmlns="http://www.w3.org/2000/svg" width="32" height="32"><path d="M7.895 21.433c-3.197-2.395-3.845-6.926-1.447-10.12L8.185 9a2.89 2.89 0 0 1 .579 4.048c-1.439 1.916-1.05 4.635.868 6.072s4.64 1.049 6.079-.867c1.134-1.511 1.133-3.52.141-5.007l-2.891 3.851a2.89 2.89 0 0 1-.579-4.048L15.421 9l1.158.867c1.894 1.419 2.893 3.587 2.895 5.782 2.111-.613 4.474-.262 6.368 1.157l1.158.867-3.039 4.048a2.9 2.9 0 0 1-4.053.578l2.891-3.85c-1.707-.534-3.638.027-4.773 1.537-2.398 3.194-6.934 3.841-10.131 1.446z" fill="#e5e5e5"/></svg>