<svg width="390" height="246" viewBox="0 0 390 246" fill="none" xmlns="http://www.w3.org/2000/svg">
<path fill-rule="evenodd" clip-rule="evenodd" d="M51.2064 220.156C-5.34643 177.741 -16.8076 97.512 25.6072 40.9592L56.3267 0C78.9478 16.9659 83.5322 49.0575 66.5663 71.6786C41.1175 105.61 47.9942 153.748 81.9258 179.197C115.858 204.645 163.995 197.769 189.444 163.837C209.507 137.086 209.479 101.506 191.942 75.1748L140.805 143.357C118.184 126.391 113.599 94.2999 130.565 71.6788L184.324 0.000230403L204.804 15.36C238.3 40.4823 255.977 78.8708 256.01 117.748C293.341 106.894 335.144 113.116 368.64 138.238L389.12 153.598L335.361 225.276C318.395 247.897 286.303 252.482 263.682 235.516L314.819 167.333C284.631 157.87 250.466 167.806 230.403 194.557C187.988 251.109 107.759 262.571 51.2064 220.156Z" fill="#22C55E"/>
</svg>
