<svg width="512" height="512" viewBox="0 0 512 512" fill="none" xmlns="http://www.w3.org/2000/svg">
<rect width="512" height="512" fill="white"/>
<path fill-rule="evenodd" clip-rule="evenodd" d="M126.322 343.925C75.1636 305.6 64.7958 233.108 103.164 182.009L130.953 145C151.417 160.33 155.564 189.327 140.216 209.766C117.195 240.426 123.416 283.921 154.111 306.916C184.805 329.91 228.351 323.697 251.372 293.037C269.521 268.866 269.496 236.717 253.632 212.925L207.373 274.533C186.91 259.203 182.762 230.206 198.11 209.766L246.741 145L265.267 158.879C295.568 181.578 311.558 216.265 311.588 251.393C345.358 241.586 383.173 247.207 413.474 269.907L432 283.785L383.369 348.551C368.022 368.991 338.992 373.133 318.528 357.804L364.787 296.196C337.479 287.646 306.573 296.623 288.424 320.794C250.055 371.893 177.48 382.249 126.322 343.925Z" fill="#22C55E"/>
</svg>
