<svg xmlns="http://www.w3.org/2000/svg" width="16" height="16" fill="none">
<rect width="16" height="16" rx="5" fill="#fff"/>
<path d="M3.948 10.716a3.61 3.61 0 0 1-.724-5.06L4.092 4.5c.639.479.769 1.385.289 2.024-.719.958-.525 2.317.434 3.036s2.32.524 3.039-.434c.567-.755.566-1.76.071-2.504L6.48 8.548c-.639-.479-.769-1.385-.289-2.024L7.711 4.5l.579.434c.947.709 1.447 1.793 1.448 2.891 1.055-.306 2.237-.131 3.184.579l.579.434-1.52 2.024a1.45 1.45 0 0 1-2.026.289L11.4 9.225c-.853-.267-1.819.013-2.386.769a3.62 3.62 0 0 1-5.066.723z" fill="#22c55e"/>
</svg>