<svg xmlns="http://www.w3.org/2000/svg" width="16" height="16"><path d="M2.106 12.042C-.22 10.3-.691 7.005 1.053 4.682L2.316 3a2.1 2.1 0 0 1 .421 2.944c-1.046 1.394-.764 3.371.632 4.416a3.16 3.16 0 0 0 4.421-.631c.825-1.099.824-2.56.103-3.641l-2.103 2.8a2.1 2.1 0 0 1-.421-2.944L7.579 3l.842.631c1.377 1.032 2.104 2.608 2.105 4.205a5.26 5.26 0 0 1 4.631.842l.842.631-2.21 2.944c-.698.929-2.017 1.117-2.947.421l2.103-2.8a3.16 3.16 0 0 0-3.471 1.118 5.27 5.27 0 0 1-7.368 1.051z" fill="#22c55e"/></svg>